<?xml version="1.0" encoding="UTF-8"?>
<svg id="Layer_2" xmlns="http://www.w3.org/2000/svg" xmlns:xlink="http://www.w3.org/1999/xlink" viewBox="0 0 29 31.49">
  <defs>
    <style>
      .cls-1 {
        fill: url(#linear-gradient-2);
      }

      .cls-2 {
        fill: url(#linear-gradient);
      }
    </style>
    <linearGradient id="linear-gradient" x1="14.5" y1="32.27" x2="14.5" y2="-1.72" gradientTransform="translate(0 30.86) scale(1 -1)" gradientUnits="userSpaceOnUse">
      <stop offset="0" stop-color="#33634c"/>
      <stop offset="1" stop-color="#4c9873"/>
    </linearGradient>
    <linearGradient id="linear-gradient-2" x1="14.49" y1="4.14" x2="14.49" y2="-1.61" xlink:href="#linear-gradient"/>
  </defs>
  <g id="Layer_1-2" data-name="Layer_1">
    <path class="cls-2" d="M26.3,27.44H2.69c-1.04,0-1.96-.58-2.42-1.51-.45-.93-.34-2.02.3-2.83,1.21-1.55,1.73-2.39,1.94-2.82l.2-.39c.79-1.55,1.48-2.89,1.48-9.92,0-2.44.81-4.6,2.4-6.43,1.96-2.25,4.84-3.54,7.88-3.54s5.92,1.29,7.88,3.54c1.59,1.83,2.4,3.99,2.4,6.43,0,6.95.7,8.3,1.5,9.86.07.15.15.29.23.44.22.43.72,1.27,1.94,2.82.64.81.75,1.9.3,2.83-.46.93-1.38,1.51-2.42,1.51h0ZM14.47,2.1c-2.44,0-4.74,1.03-6.3,2.82-1.25,1.43-1.88,3.13-1.88,5.05,0,7.53-.79,9.08-1.71,10.87l-.19.37c-.37.75-1.1,1.82-2.16,3.18-.2.26-.11.51-.06.61.05.1.2.34.54.34h23.6c.34,0,.48-.23.54-.34.05-.1.14-.36-.06-.61-1.06-1.36-1.79-2.43-2.16-3.18-.07-.14-.14-.28-.22-.42-.89-1.73-1.74-3.37-1.74-10.83,0-1.92-.64-3.62-1.88-5.05-1.56-1.8-3.86-2.82-6.3-2.82h0Z"/>
    <path class="cls-1" d="M21.43,27.44c-1.4,2.48-4.03,4.05-6.94,4.05s-5.53-1.57-6.94-4.05h2.57c1.1,1.22,2.68,1.95,4.36,1.95s3.28-.73,4.37-1.95h2.57Z"/>
  </g>
</svg>